<svg width="100" height="100" xmlns="http://www.w3.org/2000/svg">
  <defs>
    <pattern id="food-pattern" patternUnits="userSpaceOnUse" width="100" height="100">
      <!-- Pizza -->
      <path d="M20 20 L25 15 L30 20 L25 25 Z" fill="none" stroke="#FDA4AF" stroke-width="0.5" opacity="0.3" />
      
      <!-- Fork -->
      <path d="M60 15 L60 25 M57 15 L57 22 M63 15 L63 22" fill="none" stroke="#FDA4AF" stroke-width="0.5" opacity="0.3" />
      
      <!-- Plate -->
      <circle cx="80" cy="80" r="10" fill="none" stroke="#FDA4AF" stroke-width="0.5" opacity="0.3" />
      <circle cx="80" cy="80" r="7" fill="none" stroke="#FDA4AF" stroke-width="0.5" opacity="0.3" />
      
      <!-- Spoon -->
      <path d="M15 70 C15 65, 20 60, 25 65 C30 70, 25 75, 20 75 C15 75, 15 70, 15 70" fill="none" stroke="#FDA4AF" stroke-width="0.5" opacity="0.3" />
      <line x1="20" y1="70" x2="15" y2="80" stroke="#FDA4AF" stroke-width="0.5" opacity="0.3" />
      
      <!-- Chef Hat -->
      <path d="M50 50 C45 45, 45 40, 50 40 C55 40, 55 45, 50 45 Z" fill="none" stroke="#FDA4AF" stroke-width="0.5" opacity="0.3" />
      <rect x="45" y="45" width="10" height="5" fill="none" stroke="#FDA4AF" stroke-width="0.5" opacity="0.3" />
    </pattern>
  </defs>
  
  <rect width="100" height="100" fill="url(#food-pattern)" />
</svg> 